<svg width="391" height="415" fill="none" xmlns="http://www.w3.org/2000/svg"><path d="M228.756 415c-46.99 0-87.786-9.18-122.388-27.539-34.174-18.359-60.446-43.336-78.815-74.93C9.184 280.509 0 244.645 0 204.938c0-39.28 10.252-74.503 30.757-105.671 20.932-31.168 49.126-55.504 84.582-73.01C151.223 8.754 191.164 0 235.164 0a309.8 309.8 0 0159.592 5.764c19.65 3.416 35.456 8.112 47.417 14.09 3.418 2.134 5.553 4.056 6.408 5.763.854 1.708 1.495 4.697 1.922 8.966l5.767 79.414c0 1.708-1.068 2.775-3.204 3.202-2.136.427-3.631 0-4.485-1.281-12.816-32.021-31.185-56.785-55.107-74.29-23.922-17.505-52.116-26.258-84.582-26.258-45.281 0-80.524 14.944-105.727 44.83-25.204 29.887-37.806 70.235-37.806 121.042 0 43.55 7.903 82.189 23.709 115.918 15.805 33.303 37.592 59.134 65.358 77.493 27.767 18.359 59.165 27.538 94.194 27.538 16.66 0 29.476-2.134 38.447-6.404 8.97-4.27 15.378-11.741 19.223-22.415 3.844-10.674 5.767-26.258 5.767-46.752 0-21.347-1.923-36.504-5.767-45.47-3.418-9.393-10.039-15.584-19.864-18.573-9.825-2.988-26.058-4.483-48.699-4.483-2.136 0-3.204-1.708-3.204-5.123 0-3.416.854-5.124 2.563-5.124 33.32 2.135 61.514 3.202 84.582 3.202 21.359 0 43.573-.64 66.641-1.921 1.708 0 2.563 1.494 2.563 4.483.427 2.989-.214 4.483-1.923 4.483-6.407-.427-10.893.641-13.456 3.202-2.563 2.135-4.272 6.405-5.126 12.809-.854 6.404-1.281 17.292-1.281 32.662v26.258c0 19.213.64 32.662 1.922 40.347 1.281 7.685 1.922 13.022 1.922 16.011 0 2.561-.427 4.269-1.281 5.123-.428.854-1.923 1.708-4.486 2.562C314.193 409.023 268.057 415 228.756 415z" fill="#272727"/></svg>