<svg width="44" height="44" fill="none" xmlns="http://www.w3.org/2000/svg"><path d="M33.57 7.83a2.6 2.6 0 100 5.2 2.6 2.6 0 000-5.2zm9.967 5.243a16.448 16.448 0 00-.997-5.265 10.704 10.704 0 00-2.513-3.835 10.183 10.183 0 00-3.835-2.491A15.817 15.817 0 0030.927.463C28.63.333 27.893.333 22 .333s-6.63 0-8.927.13c-1.8.038-3.58.382-5.265 1.019a10.357 10.357 0 00-3.835 2.491 10.183 10.183 0 00-2.491 3.835 15.817 15.817 0 00-1.019 5.265C.333 15.37.333 16.107.333 22s0 6.63.13 8.927c.038 1.8.382 3.58 1.019 5.265a10.184 10.184 0 002.491 3.835 10.359 10.359 0 003.835 2.491c1.685.637 3.465.981 5.265 1.019 2.297.13 3.034.13 8.927.13s6.63 0 8.927-.13c1.8-.038 3.58-.382 5.265-1.019a10.184 10.184 0 003.835-2.491 10.51 10.51 0 002.513-3.835c.618-1.69.955-3.468.997-5.265 0-2.297.13-3.034.13-8.927s0-6.63-.13-8.927zm-3.9 17.594a12.156 12.156 0 01-.737 4.03 6.631 6.631 0 01-1.625 2.491 6.912 6.912 0 01-2.492 1.625 12.153 12.153 0 01-4.03.737c-2.166.108-2.968.13-8.666.13-5.699 0-6.5 0-8.667-.13a12.412 12.412 0 01-4.203-.65 7.085 7.085 0 01-2.384-1.625 6.5 6.5 0 01-1.603-2.492 12.004 12.004 0 01-.867-4.116c0-2.167-.13-2.969-.13-8.667s0-6.5.13-8.667a12 12 0 01.759-4.116 6.5 6.5 0 011.711-2.384A6.803 6.803 0 019.217 5.1a12.415 12.415 0 014.116-.737c2.167 0 2.969-.13 8.667-.13s6.5 0 8.667.13c1.375.016 2.738.265 4.03.737a6.63 6.63 0 012.578 1.733A6.63 6.63 0 0138.9 9.217c.482 1.319.73 2.712.737 4.116.108 2.167.13 2.969.13 8.667s-.022 6.5-.13 8.667zM22 10.885A11.115 11.115 0 1033.137 22 11.093 11.093 0 0022 10.885zm0 18.33a7.215 7.215 0 110-14.43 7.215 7.215 0 010 14.43z" fill="#fff"/></svg>