<svg width="47" height="40" fill="none" xmlns="http://www.w3.org/2000/svg"><path d="M12.914 22.857c2.402 0 4.304.802 5.706 2.406 1.501 1.504 2.252 3.509 2.252 6.015 0 2.707-.9 4.862-2.703 6.466C16.468 39.248 14.115 40 11.112 40c-3.504 0-6.257-1.353-8.259-4.06C.951 33.233 0 29.373 0 24.36c0-4.51 1.001-8.67 3.003-12.48C5.005 7.97 8.01 4.06 12.013.15c.1-.1.25-.15.45-.15.3 0 .55.15.751.451.2.3.2.551 0 .752C8.31 6.216 5.856 12.13 5.856 18.947c0 2.807.5 4.863 1.502 6.166.9-1.504 2.753-2.256 5.556-2.256zm26.128 0c2.402 0 4.304.802 5.706 2.406C46.249 26.767 47 28.772 47 31.278c0 2.707-.901 4.862-2.703 6.466C42.595 39.248 40.243 40 37.24 40c-3.504 0-6.257-1.353-8.26-4.06-1.901-2.707-2.852-6.567-2.852-11.58 0-4.51 1-8.67 3.003-12.48 2.002-3.91 5.005-7.82 9.01-11.73.1-.1.25-.15.45-.15.3 0 .55.15.75.451.201.3.201.551 0 .752-4.904 5.013-7.357 10.927-7.357 17.744 0 2.807.5 4.863 1.502 6.166.9-1.504 2.753-2.256 5.556-2.256z" fill="#fff"/></svg>