<svg width="61" height="113" fill="none" xmlns="http://www.w3.org/2000/svg"><path d="M30.5 61V0" stroke="url(#paint0_linear_509_94)"/><path d="M2.688 95.52c0 .384.101.73.304 1.04.203.31.448.581.736.816.299.224.699.496 1.2.816.544.352.97.656 1.28.912.32.256.592.565.816.928.224.352.336.757.336 1.216 0 .907-.32 1.627-.96 2.16-.63.523-1.445.784-2.448.784A6.72 6.72 0 012.416 104c-.544-.139-.907-.288-1.088-.448a.347.347 0 01-.112-.096 1.767 1.767 0 01-.032-.208l-.064-2.544c-.01-.043.01-.069.064-.08.064-.011.107.005.128.048.299.619.576 1.141.832 1.568.267.416.587.779.96 1.088a1.93 1.93 0 001.264.464c.939 0 1.408-.512 1.408-1.536 0-.491-.112-.923-.336-1.296a3.074 3.074 0 00-.8-.928c-.31-.256-.725-.555-1.248-.896-.48-.31-.864-.576-1.152-.8a3.438 3.438 0 01-.736-.832 2.073 2.073 0 01-.288-1.088c0-.576.16-1.056.48-1.44.33-.395.752-.683 1.264-.864a4.61 4.61 0 011.632-.288c.373 0 .763.037 1.168.112.416.064.736.144.96.24.096.053.16.107.192.16a.26.26 0 01.048.16v2.352c0 .032-.027.059-.08.08-.053.01-.09 0-.112-.032a27.92 27.92 0 01-.352-.816 3.604 3.604 0 00-.896-1.312c-.395-.395-.848-.592-1.36-.592-.427 0-.779.128-1.056.384-.277.245-.416.565-.416.96zm12.222 8.672c-1.312 0-2.39-.256-3.232-.768-.843-.512-1.45-1.157-1.824-1.936a5.766 5.766 0 01-.56-2.496c0-1.056.256-1.973.768-2.752a5.01 5.01 0 012.064-1.792 6.37 6.37 0 012.8-.624c.49 0 1.003.048 1.536.144.533.085.965.192 1.296.32a.433.433 0 01.16.144c.032.043.048.117.048.224l.112 2.144c0 .032-.027.048-.08.048a.108.108 0 01-.096-.048c-.395-.81-.901-1.435-1.52-1.872a3.416 3.416 0 00-2.08-.672c-1.013 0-1.792.368-2.336 1.104-.533.736-.8 1.77-.8 3.104 0 .96.165 1.856.496 2.688.341.832.8 1.493 1.376 1.984.576.491 1.21.736 1.904.736 1.099 0 2.123-.811 3.072-2.432.021-.032.048-.048.08-.048.064 0 .096.032.096.096l-.096 1.84a1.114 1.114 0 01-.064.272c-.021.032-.08.064-.176.096a8.787 8.787 0 01-2.944.496zm15.82-.384c.032 0 .048.032.048.096.01.064-.005.096-.048.096h-2.624c-.256 0-.704-.427-1.344-1.28-.63-.864-1.392-2.16-2.288-3.888a4.09 4.09 0 01-.992.112.9.9 0 01-.208-.032v3.792c-.01.309.01.544.064.704a.59.59 0 00.32.32c.16.053.4.08.72.08.043 0 .064.032.064.096.01.064-.005.096-.048.096-.362 0-.64-.005-.832-.016l-1.184-.016-1.2.016a17.79 17.79 0 01-.864.016c-.042 0-.07-.032-.08-.096 0-.064.022-.096.064-.096.352 0 .614-.027.784-.08a.53.53 0 00.336-.32c.064-.16.102-.395.112-.704v-7.408c0-.32-.032-.555-.096-.704a.48.48 0 00-.32-.304c-.16-.064-.405-.096-.736-.096-.042 0-.064-.032-.064-.096s.022-.096.064-.096l.848.016c.47.021.854.032 1.152.032.363 0 .758-.021 1.184-.064.342-.021.566-.032.672-.032 1.078 0 1.883.176 2.416.528.544.352.816.843.816 1.472 0 .459-.154.901-.464 1.328a3.662 3.662 0 01-1.2 1.072c.832 1.376 1.536 2.459 2.112 3.248.587.779 1.099 1.344 1.536 1.696.448.341.875.512 1.28.512zm-7.456-5.344c.128.032.283.048.464.048.704 0 1.2-.155 1.488-.464.299-.31.448-.827.448-1.552 0-.757-.15-1.312-.448-1.664-.288-.363-.645-.544-1.072-.544-.288 0-.485.021-.592.064-.106.032-.181.117-.224.256-.032.128-.053.368-.064.72v3.136zm12.81 5.728c-1.013 0-1.909-.229-2.687-.688a4.797 4.797 0 01-1.808-1.856c-.416-.789-.624-1.664-.624-2.624 0-.981.229-1.867.688-2.656a5.017 5.017 0 011.92-1.856c.821-.459 1.744-.688 2.768-.688 1.034 0 1.946.224 2.736.672A4.548 4.548 0 0140.9 96.32c.437.768.656 1.627.656 2.576 0 1.056-.251 1.989-.752 2.8a5.003 5.003 0 01-2 1.856 5.869 5.869 0 01-2.72.64zm.673-.416c.586 0 1.098-.16 1.536-.48.448-.32.794-.773 1.04-1.36.245-.597.368-1.296.368-2.096 0-.981-.166-1.904-.496-2.768-.331-.864-.795-1.557-1.392-2.08-.598-.523-1.28-.784-2.048-.784-.587 0-1.104.16-1.552.48-.448.32-.795.779-1.04 1.376-.246.587-.368 1.28-.368 2.08 0 .96.165 1.877.496 2.752.33.864.794 1.563 1.392 2.096.608.523 1.296.784 2.064.784zm6.741.224c-.021 0-.032-.032-.032-.096s.01-.096.032-.096c.33 0 .57-.027.72-.08a.434.434 0 00.288-.304c.054-.149.08-.389.08-.72v-7.408c0-.32-.026-.555-.08-.704a.48.48 0 00-.304-.304c-.15-.064-.373-.096-.672-.096-.032 0-.048-.032-.048-.096s.016-.096.048-.096l.768.016c.47.021.848.032 1.136.032.288 0 .678-.01 1.168-.032l.816-.016c.022 0 .032.032.032.096s-.01.096-.032.096c-.33 0-.57.032-.72.096a.48.48 0 00-.288.304c-.042.15-.07.39-.08.72v7.328c0 .416.059.693.176.832.118.128.342.192.672.192h.448c.864 0 1.584-.192 2.16-.576.587-.395 1.056-1.003 1.408-1.824a.11.11 0 01.08-.032c.032 0 .064.011.096.032.032.011.048.027.048.048a25.295 25.295 0 00-.128 2.448c0 .16-.08.24-.24.24h-7.552zm9.343 0c-.021 0-.032-.032-.032-.096s.011-.096.032-.096c.331 0 .571-.027.72-.08a.434.434 0 00.288-.304c.054-.149.08-.389.08-.72v-7.408c0-.32-.026-.555-.08-.704a.48.48 0 00-.304-.304c-.149-.064-.373-.096-.672-.096-.032 0-.048-.032-.048-.096s.016-.096.048-.096l.768.016c.47.021.848.032 1.136.032.288 0 .678-.01 1.168-.032l.816-.016c.022 0 .032.032.032.096s-.01.096-.032.096c-.33 0-.57.032-.72.096a.48.48 0 00-.288.304c-.042.15-.069.39-.08.72v7.328c0 .416.059.693.176.832.118.128.342.192.672.192h.448c.864 0 1.584-.192 2.16-.576.587-.395 1.056-1.003 1.408-1.824a.11.11 0 01.08-.032c.032 0 .064.011.096.032.032.011.048.027.048.048a25.295 25.295 0 00-.128 2.448c0 .16-.08.24-.24.24h-7.552z" fill="#DCCA87"/><defs><linearGradient id="paint0_linear_509_94" x1="59.004" y1="-11.857" x2="59.004" y2="78.293" gradientUnits="userSpaceOnUse"><stop stop-color="#DCCA87"/><stop offset=".43" stop-color="#DCCA87"/><stop offset=".927" stop-color="#DCCA87" stop-opacity=".24"/></linearGradient></defs></svg>