<svg width="40" height="10" fill="none" xmlns="http://www.w3.org/2000/svg"><g clip-path="url(#clip0_509_79)"><path d="M33.501 9.5C37.085 9.5 40 7.481 40 5S37.085.5 33.5.5c-3.389 0-6.18 1.806-6.471 4.102h-4.677v-.947H0v2.69h22.353v-.947h4.677c.292 2.296 3.082 4.102 6.471 4.102zM21.49 5.548H.863V4.452H21.49v1.096zM27.866 5c0-2.042 2.528-3.704 5.636-3.704 3.107 0 5.635 1.662 5.635 3.704 0 2.042-2.528 3.704-5.636 3.704-3.107 0-5.635-1.662-5.635-3.704z" fill="#DCCA87"/></g><defs><clipPath id="clip0_509_79"><path fill="#fff" transform="translate(0 .5)" d="M0 0h40v9H0z"/></clipPath></defs></svg>